# xmcd
#
# Track frame offsets:
# 150
# 13433
# 24360
# 38060
# 51478
# 67670
# 80557
# 98916
# 112268
# 124142
# 134217
# 142460
# 162086
#
# Disc length: 2307 seconds
#
#
# Revision: 0
# Processed by: cddbd v1.5.1PL2 Copyright (c) Steve Scherf et al.
# Submitted via: FreeRIP 2.945 
#
DISCID=c309010d
DTITLE=OS REIS DA VIOLA - OS REIS DA VIOLA
DYEAR=2006
DGENRE=Country
TTITLE0=REI DO GADO
TTITLE1=CORACAO BATIDO
TTITLE2=CAIPIRINHA DO ARRAIA
TTITLE3=O PODER DO CRIADOR
TTITLE4=VIVA A VIDA
TTITLE5=SOFRENDO POR TI
TTITLE6=LADROO E A BIBLIA
TTITLE7=PAGODE ME BRASILIA
TTITLE8=O REI DO FUMO
TTITLE9=INGRATA MORENA
TTITLE10=EU TENHO MEDO DE TE AMAR
TTITLE11=SONHEI COM VOCE
TTITLE12=BATE COXA
EXTD=TIÃO CARREIRO E PARDINHO/TONICO E TINOCO\nPEDRO BENTO E ZÉ DA ESTRADA ETC...
EXTT0=
EXTT1=
EXTT2=TIAO CARREIRO
EXTT3=GINO E GENO
EXTT4=
EXTT5=
EXTT6=
EXTT7=
EXTT8=
EXTT9=
EXTT10=
EXTT11=
EXTT12=
PLAYORDER=
